<mxfile host="app.diagrams.net" modified="2021-02-13T02:01:29.929Z" agent="5.0 (X11; Linux x86_64) AppleWebKit/537.36 (KHTML, like Gecko) Chrome/88.0.4324.150 Safari/537.36" etag="4lELT4GmYDaGoFEFfiW6" version="14.3.1" type="github">
  <diagram id="pR2c8lFUbPQVVkSDbO_-" name="Page-1">
    <mxGraphModel dx="1418" dy="737" grid="1" gridSize="10" guides="1" tooltips="1" connect="1" arrows="1" fold="1" page="1" pageScale="1" pageWidth="850" pageHeight="1100" math="0" shadow="0">
      <root>
        <mxCell id="0" />
        <mxCell id="1" parent="0" />
        <mxCell id="HTOVWrgXT7IvX3jWYRZA-1" value="" style="shape=image;verticalLabelPosition=bottom;labelBackgroundColor=#ffffff;verticalAlign=top;aspect=fixed;imageAspect=0;image=data:image/png,iVBORw0KGgoAAAANSUhEUgAAArwAAAE8CAIAAACtgPVRAABV6klEQVR42uz9eXwUVaI3/tfS+5Jesu8bhJAEQhK2sK9BQDZxxBm5o6I+jjPDzHWFGXHcHQa3Rx0dFUWvDF4QQVkFwUBYJISELCQhZCFkIXs6nU6nt+qq+r1uzjP1628CuAx4ifm8/+DVdFeqq09Xn/rUqXNOyURRpAAAAAC+C4MiAAAAAIQGAAAAQGgAAAAAhAYAAABAaAAAAACEBgAAAEBoAAAAAEBoAAAAAIQGAAAAQGgAAAAAhAYAAABAaAAAAACEBgAAAEBoAAAAAEBoAAAAAIQGAAAAQGgAAAAAhAYAAABAaAAAAACEBgAAAEBoAAAAAEBoAAAAAIQGAAAAQGgAAAAAhAYAAABAaAAAAACEBgAAAEBoAAAAAEBoAAAAAIQGAAAAuK5kKAIAgEFBFEWO42iapihKEAS32321JQVBEEWRZdmrLaBUKhmGIeuUyWTkMQBCAwDAoCEIgtPp9Hq9vb29FEU1NzfTNO1yubq6uoQ+5Hmapnme7+zsvOJKaJp2u92iKKpUKlEUrxg+zGazXC4nr6rVaplMRtO0n5+fTqcTBCEkJISmabVarVQqVSrVNcIHIDQAAMBPwel0ut3uxsZGq9Xa1tZWX1/v6SMIgsvloijKarXSNM1xnN1uJwd40swghYN/p9Fi4GONRqNSqQRBMBqNNE0rFAq5XE7aIeLi4kwmU0BAQFhYmFqt1mq1+PqGJvqKORQAAK47juPa2touXbpUXl5eUVHhcDgoiuJ5XhAEvs+1Kuv/b0Twer0TJkz4kSeLMtnp06evESMGYlmWYRjyL03Tcrk8ISEhOTk5NjY2NDRUqVTiy0VoAACAH38qL4qi1+vlef7y5cvl5eWnT5+ura0lh39y6CU5gPyXIP+VyWTDhw/X6/XDhw/X6XQKhSI4OFihUFAUZTAYrvum9vT0kGsfra2tvb29bre7oqLC4/GUl5eTyxxSJwmymPTpyJOiKAYHB0+ePDkpKSk6OlqhUEjZArsBQgMAAFyL1+vt6urq7OxsamoqKCjIzc0l5+iknZ+maa1WS1r45XI5y7KRkZFRUVHBwcEhISEajYaEg2vHket1PP4+q+J53uFwNDc3WyyW2trahoYGt9vN83xvb6/T6STXTQRB4DiO53mO49LS0iZMmBAREREQEGA2m7/z4wBCAwDAUOR0OsvLy6uqqir7uN1ueR+apklvAH9/f71eHx4eLnUOuNGx4AZFCo7jmpqa2tvbm5qauru7rVbr5cuX29vbpejAsmxsbGxiYmJ8fPyoUaP8/PyweyA0AADA/2tdKCgoOHLkSH19vdVqJdcayIX/pKSk2NhYQx+tVjvYRyIMTBJkxIfVarXZbPX19RUVFaWlpS6XSxRFnuf1en1kZOT48eOnT5+uUqmwqyA0AAAMaTzPv/nmm8XFxeR6P03TwcHB8+fPT01N1el0bJ+f62fvlyEEQfB6vS6X6/z58wcPHrx48SIpEzL+YvXq1SaTCTsMQgMAwNBNDGvWrGlubpbJZCzLhoaG/p//83+io6Ovdl4+pHR0dLz33nu1tbUcx3m9Xj8/vw0bNuj1euw2CA0waAiC4PF40LF56BBFkXS4Q1HcCFu3bt27d69MJouMjFy+fPmYMWMQF6QBnKQELl26tHXr1srKSqfTOWXKlN/97nfYbRAaYNDgOK65uRmzxg6p6ttsNmM2nhuht7d37dq1NpvNYDCsW7cuKCgIZXJFDofj9ddfr6io4Hl+/fr1UVFRKJNBCjNCDr2c+K9B4SiKIUIQBDQs3SBNTU3kmr1KpSKJYYg3MFyNRqMJCAggjV7ffvstQsPghSMHAMCPRIZTkvmeT548+W9O7fwzVlVVVVFRId0iCwWClgYAgKFXgfbd54miKJfLtXHjxqampqysLJ1Oh/kQCZ7n3W736dOnt2zZ4nK5SMcadK9BaAAAGIqkk2a5XM5x3Pbt27/66qvly5cPHz48KChIr9cPzQOkKIp2u729vf3SpUuff/55e3u7SqXSaDQejwfNDAgNAABDXVJSEsMw586d4zjuk08+0Wq1SUlJUVFRMTExkZGRwcHBQ6EXkSiKnZ2dDQ0NZLbpiooKi8WiUCi0Wm1sbGxycnJ2dja5tTcgNAAADF1RUVFLliwpLS09fPhwWVmZ1+stLCwsKirS6/UGg8HPzy8mJmbkyJGRkZEBAQE/s8/e1dXV1NR0/vz52trarq4um83W3d0tCAKZEzMuLm7evHlJSUl2u/3YsWPYVRAaAACGOlEUFQpFWlra6NGju7q6jhw5kpOTY7PZevs0NTVVVlZ+8803pK/D6NGjyZm3yWS6EXetvNFsNpvdbi8rK7t48eK5c+fcbrfwL9L0DFqtdsKECVlZWcHBwaS7aE9PD65NIDQAAMD/Q9M0y7KBgYF39GltbT158mR2djaZXJnMikhRVG5u7qlTp3ieJwfR2NjY+Pj48D56vd5sNpO7YpJ7ZJMOlVLPSumG2tcx7kjHculW12TbvF6vKIpWq7W3t7e+vr69vb2ysvLixYter9f3dt7ksTSBWGZm5owZMzCoEqEBAAC+OzdIszUEBwff1sfhcNTW1paWljY2NrpcLofD0dOH53maphsbG+vq6qQzdUEQWJaNiorSaDRRUVFqtVoul/v7+8tk/1NdGwwGaeDij76PA03TXV1dUmiw2Wzk3S0Wi8vl8ng8ly5d8nq9Fy9e9Hg8UiwgUYbc45u0Jfj5+Wk0GpVKFRgYmJqaGhcX59twgikrEBoAAOD7RgeJRqNJ7kNRlMfjsVgsra2tbW1tdrud47j29na73W61WltbW3meJ4fb1tZWURSrq6tJM4DUHuDbKiDd4eKHYhimrq5u4NaSOEIiAk3TCoVCqVSSl0JCQvR6vdFo9Pf3VyqVZLKmkJAQf3//q93gG4kBoQEAAH4kcuatUChC+khPOhwOj8fjdrsdDofX6+3u7na73RaLhaKoiooKmqbtdnt9fT1plvBdYXt7+4/eGI1GM/AYHxwcHBgY6PV6ExMTKYoyGo06nU6r1crlcq1WSzKEWq0eOI4UjQoIDQAAcAObH8iBlrTz+94ZxLdFYcGCBb7NDDzPd3Z2kr/yeDwNDQ1Xey+HwyEIgk6nu+KrgiBERkaqVCqyZqPRSPoqSh0mpAGiV+tC0S8lIDEgNAAAwE+XIfo93+/gLQ3QiIiIkJ6JiYm52TYefvZw7wkAgEEcMgAQGgAAAAChAQAAABAaAAAAAKEBAAAAEBoAAAAAEBoAAAAAoQEAAAAQGgAAAAChAQAAABAaAAAAAKEBAAAAEBpQBAAAAIDQAAAAAAgNAAAAgNAAAAAACA0AAACA0AAAAAAIDQAAcH05HI7m5uampqZrL9bT09PW1sbz/E+zVRaLpaenB98OXI0MRQDXEU3TPT09ly5d4nleoVAkJCSwLEteEkWxvb398uXLDPM/UVWj0eh0Ooqi9Hq9VqulaZphmLq6us7OTpqmKYpSqVR+fn6CIPj5+Wm1WoZhyMprampkMllcXJxarR741jU1NQzDhIeH+/v7i6JIURTHcT09PW63u6OjQy6XBwYGajQalUpF3sW3Bq+qqqIoSqfTRUdHy2T/89Ooqanp6enpt6QkKSmppaWlvb3dYDDEx8dLH7Onp8dut1utVrfbbTAY1Gq1yWRSqVRkAZ7nS0tL+70RqawvXbrkuyr4uWpsbPzoo48+//xzt9tNnpk0adITTzwxfPhw8nvhOO7ixYtvvvnm4cOHye7ndrvnzp27evXqhIQEpVJJUdSrr776/vvvR0REHDx4UNqLHA7H888//+GHHz7//PMPPvjgyZMnb7/9dj8/P+mteZ4PDw9/8MEHMzMzY2NjpZ22ubn5rbfeOn36dENDA0VR8fHxK1asmDlzZkxMDEVRe/bs+d3vftfvF0dRlMfjmTp16ieffILvFKEB4EftTzLZwYMHN27c6PF4TCbT+vXrExMTyUmSKIrffPPNW2+9RQ6fYh+WZWfOnDlt2rQJEyYYjcZPP/10//79vjnD6/XOnj176tSp6enpwcHBVVVVjz76qNlsfvnll4cNG+Z7+sWyLHlVpVKtXr168eLFHMd5PJ7du3cfOnSorq7O4/FQFBUREZGRkbFgwYJhw4ZJaUClUm3ZsuXDDz8URTE8PPzpp59OSEgQRfHtt9/Oz8+XauR+tm/fvnXr1h07dkyaNOm1114jNXtJScnOnTtzc3PJygVBkMvlv/jFL+bOnRsfHy+Kosvlevjhh0VRDAoKeuqpp0aNGiWKIsMwubm5Tz/99NSpU8mq4OfK6/U+8cQTeXl5aWlpCQkJJEOcOnXqvvvue++991JSUgRB+Oabb55++mmHw6HX65OTk+VyeUVFRW5u7tGjRx999NEHH3yQoiiFQkECd7/oTNK2QqEgv0c/Pz+1Wj1q1CgSNbxeb01NzfPPP+/1ektKSkgOOHbs2IYNG2pra41G47Rp09Rq9YULF9avX79r16433ngjOjpaLpfr9XqdThcTE6PX630/S3JyMr5ThAaAH8lut5eUlDAMExgY6HA4cnJykpKSpEO7QqHQarVBQUGTJk0ih9iioqITJ07k5ub+6U9/mj9/vlKp1Ol0LMtOnTpVq9UKgnD8+PHTfVauXPnAAw8wDKPT6TQazRXP/smrSqVSLpfTNC0IwsaNG3fv3k3TdHR09JQpU1wu19mzZ3ft2nXhwoUXXnjBbDZL52fHjh3T6XSiKFosloqKChIpli5dmpmZKZPJ7Hb79u3bWZYdN26c9IkUfXQ6Hal5RVE8c+bMa6+95nQ69Xp9ZmZmaGhobm5uU1PTjh07zp8/v3bt2rCwMJqmSRNLV1fX7t274+LiNBoNz/Mej0daFfyMnTt3Li8vLzQ09De/+c3s2bMpiqqtrX399dddLpfVaqUoqqWl5d133+3p6ZkyZUpWVlZmZqZCoSgqKtq6dWtxcfHHH3+ckJAwc+bM7/+ODofjkUceCQ8Pp2na6/UeO3bsnXfe6e3t/eijj377299evHjxxRdfbG9vT01NXbVq1ejRozUaTXl5+d/+9reKiootW7asWbOG7N56vf43v/nNqFGjBEGQVi6Xy/GdIjQA/Bg0TVdXV9fW1nq93vvvv/9vf/tbXV2d1Wr1PRnieT4iIuK+++4jx/h9+/Zt2bLF7Xbv2LFj0aJFUhRYtWqVTqejaXrKlCl/+ctfeJ6vqqq6xpWCgeRy+d69ew8ePKjVam+99dalS5eSix2zZ89ev379hQsXDh06tGLFCtJEUVZWZrfbKYp66KGHNmzYUFJSMmvWLK1WO3XqVNIMQEKDTCYbO3bsggULSKMF+VditVq3bt3a29sbFxf32GOPBQcHK5XKxYsXnzx5cuPGjVVVVV988cUf/vAHKd+YTKacnJzFixenpKSQNpXv/+luBFEUu7u7z549W1VV9ctf/tK3TXtI2blzJ03TEydODAkJuRHfiEKhkMvlDofj6NGjEyZMIKfvL7zwgiAIJDLW1NRUVFSIonjvvfdmZmaSv5o7d25ISMi9997rcrmOHj36g0KDKIr+/v5BQUHkvwsXLty8eXNvb29hYSFFUfn5+Xa7nWXZBx54YNasWWSZCRMmvPLKK+fPn09NTZVa/mQymb+/f0BAAOq6oQwdIeF6HnVqamoaGhrGjRs3c+ZMQRDKy8vLyspIJ4b/f1CVyVR9FArFnXfe6e/vT7oj+GYCtVpNFpg4cWJqaqogCFartaur6/tX4gqF4ptvvqEoymg0Llu2LCAgQCaTKRSKuLi4l156adu2bSQxkO35+uuvLRZLTEzM1KlTg4KCTp482dXVRWIQ6UshfQTpv/0+FEVRvb29ZWVlPM/feuut8fHxOp1OLpebzeZly5aRwqmvr7dYLOQjmEymefPmCYLw3nvvkb4X/yuJQer2cerUqXXr1q1evXrTpk11dXW+p5JDTWdn544dO9asWfPQQw8dOnTIZrNJBXVdCjw5OTkqKkoQhD179jz00ENbt269fPmyXq83Go3kmkJ1dTVFUcHBwaQ/gWTUqFFSy8EP3WHI1UDy+NtvvyVdHW+99VaKokpLS8kKp0+f7vsncXFxCxcujIiIkJ7xeDzNfS7/S2Njo9frRdWHlgaAH6Onp+fMmTOCIMydO1cmk912223bt2+/dOnS2LFjfQ+xXq+XVFIsy3700Uetra2kVyBpCZAOwOTAfPjw4YKCAoZhzH2+s6u5xOl0WiwW0uMyLCzM6XRKtWdgYCDpbUCq3dbW1ra2Nq/XO3/+fI1GM3ny5B07dhQWFvpWl99Hc3MzWaFUuZO3k8lkKSkphYWFLpfL6XSSaxMURaWmppb0ycnJkc7wfho8z7tcLrvd3tramp2dnZ+fz3GcQqFgGOYn66V/8zebORyOTZs2vf322+PHj582bVp8fLy2DwmOP3q1pA/jU089Zbfby8vLCwsLOY6Ljo7+3e9+N2/ePJVK1dTUJIrimDFjfJvoRFGkaTo+Pr6ioqKjo4M0jF0xHAwMfFqt9i9/+Qvp/Nvc3FxRUWEwGMLDw8leR34aJpOJZVnyLlfb8u7u7kceecR3D+nu7v7222+lDpWA0ADwA05lWltbCwoKAgMDk5OTRVGcMmXK9u3bc3Nzs7KyjEYjWYxl2fr6+vfff5+iKJfLVVxczHFcQEDAHXfc4dvav3HjRp1Ox/P80aNHZTKZVqvNyMggfQ6+Z9VstVpJ7RYUFMQwjFQb0jTte2ZP03RFRcWFCxdUKtWcOXPkcvmoUaP291m4cOHA5oRrID3hjUajNFCCrJ/n+XHjxuXn51v6kH5kPM+HhYVNnz69rq7u9ddfz8jIUKlU1+t09hrfkc1ma2pqqq+vr6yszMvLczqdCoWCtP1gHx64F5FuK2VlZUVFRTRNp6SkpKWlhYWFxcTEGI3GH7R7+EpJSfniiy/OnTv31VdfdXd3V1RUkD68ISEhEyZMMJvNNE3X1dVJYyuk3ZUEU51OJ+UJQRBIHxqpMaCpqanfhjEM09zcLJPJeJ7v6OhQKpWZmZmvvvoq6eErk8lomu7s7PzO1guVSjV16lSz2SztqL5vDQgNAD/M6dOn3W53YGDgRx99JJfLnU6nWq0uLy9vaGiQQgO5EnHgwAFyDAsPDx83btysWbPS09M5jpNWdfz4cXLOFBUVlZSUlJmZOWHCBN8FvvPoaDKZSJ3Y2trqdDqvVhtyHFdZWdnT02M0Gv/+97/TNN3R0aFWqysqKmpra4cPH/79G+pNJhM597JYLNL1Y1IpHz9+XCaTGftIFS7HcYsXLz5y5Ehtbe0HH3wwbty4G3fws9ls58+fLy8vb2pqamxs7OjooGmapLGByyuVys8++2xo7sMMw1RWVg68oCaTyURRrKioKC0t1ev1cXFxQUFBI0aM+HE9PywWi0qlGtWHoqizZ8/+9a9/LSsr+/jjjydMmEDG3FZWVjY3N5NWMaKxsbG3t5eiKIPBQNN0WFgYuVRRUVEh7Tzd3d35+fkMw/humMPheOyxx0JCQpxO50cffXTs2DGn0ynthyEhIaTXQkFBQUZGhvRXra2tu3fvnjdvXlRUFPlN+fn5/eY3v0lMTERdh9AA8O8SBGHfvn1qtdpiseTk5JAnFQqFy+XKzc2VWuy9Xu/o0aMfeeQRaQGtVqvRaPodm99++23ypEKh0PT5odeVlUqlwWBoaWmx2+319fXkKjJ56ciRI+fOnVu2bFlkZKTVas3OzibbefjwYXKIpWlarVZ/9tlnzzzzjO/Z3rX5+fmRLayoqPCtWB0OR01NDU3TJpPJbDZL0UcQBK1We8899zzzzDP5+fk8z19tbOe/z+Vy1dXV5ebmdnd3MwxDRpdcbWGWZc+cOSNd0BmCueGKhUNilkwm83g858+fr66upmn6hx5BeZ6//fbb3W53Zmbm2rVrydCDpD6lpaUul4uiqISEBH9/f5vN9o9//OOZZ54JDg4mPS3++c9/0jSt0WhGjx5NUdTw4cNJ99uvv/6ahAav13vo0CG32y2KYmhoqO+bJiYmkmN/d3d3YWHhqVOnPv744wceeICiqFmzZu3Zs8dqtX7wwQexsbHSkKJnn3321KlT+fn5r776qpTFv//PARAaAK5Vz5aVlbW1tZnN5sWLF0dHR5PLAefOndu1a9e+ffvuvfdeqQ+2UqkkJ0m+DQP9VhgSEqLVaq+dEnz7dg3k8Xj+4z/+Y926dV1dXf/1X//10EMPkZaA5ubmd99912KxMAzz+9//vq2tra6uzmg0rlq1ymAwkNPKI0eOnD59+ttvv/1BnbxMJtP06dNzc3M3b94cFhY2btw4hmG6urq2b98uiqJcLh8+fLhOpyNdLKXGhsmTJ8fGxlZXV+fk5NyI0EBKKSgo6LY+VVVVX3/9dUFBgTR5xsADpMPheOWVV0hpDEEbN27MycmRdteBR/34+Pjly5cnJyezLNvY2PiDvguWZcPCwk6ePLlnzx673b506VJ/f/9vv/12+/btgiA89NBDFEWFh4evWLHi/fffz8vLmz9/Phk3sWPHDofDwTBMSEjIHXfcQbrO+Pv7t7e3b9++vby8fNGiRR9++GFnZyf5fQ0bNuyKP7G5c+cePnz40KFD77777tKlSwMDA0eNGjVmzJijR4/m5eXNmzdvyZIlUVFRmzdvJtOs3XbbbVIvHLvdfvz48ebmZt+Iz3HckiVLUAciNAD8kN1IJtu7dy/LsklJSXfccQdpGGAYJjg4OC8vr7GxsaCgQBo89u9zOBy7du0KCwuTKi+v1zt9+nTfVmWO4yZOnDhy5MgLFy6cOHEiJydn0aJFPT09Bw8e1Ol0o0aNuvvuuymKOnDgABlfN2/ePLLZLMsGBgaeP3/eZrPt3bt3yZIl3/OyiJ+f39KlS8nFjieffDI0NDQ1NfWbb74RBEGlUo0YMeLOO+8cuCqn0/niiy/eeeedN+irkfpwEMP78DxfVFRExozY7Xan0yl1C71ajBuyRFHUaDSkC+TkyZNnzJhBZkn6EQVFvou33377hRdeyMnJyc7O3rNnD2lOCw8Pj4+PJ40Hcrl81apVnZ2dJ06ccDqdBw4cII1SRqNx2LBhb775ppT2Xn/99YcffpgM2ykuLibNcmaz+c9//rPvBTLfraVpetWqVSUlJR0dHQ899ND27dtpmn7llVcef/zxs2fP9vb2btu2jaZpf3//0NDQuXPnzps3T9p4p9P53nvv9WsUtNlsCA0IDQA/7LDU2dl55MgRpVIZGRmp0+mkLo2kHmxpadm5c+fkyZOv1zu63e79+/f7Vl5OpzM0NLRfRelwODZs2LBx48bi4uLOzs69e/f6+fmNHz8+MDBw2bJlBoPBbrcfOHBAoVCkpKQoFArSruD1ehMSEoKCgmw2W3Z29tKlS7/nVgmCkJ6e/vDDD+/evZuMyDh48GBgYKDZbE5NTV2yZIlcLh/YQ4LMmbNixYrNmzdf7ez2uh8FWZbN6OP1egsLC8+fP096R16tT/7QxLJsbGysv7//6NGjR40adR2bXtatW/fLX/7yyJEj5KYSarX6lltuSUlJkb4gnU737LPP5ufnFxcXX7582ev1hoeHJyYmklGR5NgvimJSUtKOHTt27dpFRmnKZLL4+PiFCxfq9XqyTFBQ0B133EFWKKWWxMTElStX1tXVKRSKysrKESNGUBT18ssv5+XlnT17trm5Wa/Xjx07lrRkkE2KiIj4xS9+ccV5nMglFRhCFT5OKYYar9fb0tLyozt+XzE0WK3WoqIihmHi4+MjIiJ4nifVk0wmKy8vJ+2Zs2bNamhoqKysDAgISE1NvWIdXVZW1tLSQtP05MmTB7bV0zRtsVhKSkoG/i3P8+TAX1xczLLssGHDQkNDydkz6Yje0dHR09Oj1+vDw8MDAwPlcjnP8w6H49SpUzKZLDk5OTAwkPwWyKWEkpKS9vZ2pVI5ceJEUmgnT56U1kyW5Hm+urq6sbGRfCJSTcvl8ra2tvY+Ho/HaDSazeb4+HhBEEixkFUpFIrRo0dL40F6e3tPnTrFsixJGNf3GxcEwWw2k3aUq7FarfX19S0tLZWVlRaL5Q9/+IPUd3Wo2bRpU1tbW0pKSlBQUFxcnO9cRgOv5jQ0NGzYsMFmsy1cuJBcNfg38xxZ/zWGPl7jpX7tH1dcbOBL154m5DpOInJ9ywoQGmCwhgZSi5EVkiEPUsXn262M53ny2HeZfuuRFhYEYWDl6PtGVzw0krcb+Of9BltKnSGktfVbXtoSadT71ZYkoURaobRaQnqGLECWvNqqpAK87j/Ja4eGfh/c5XK53W69Xv/TNHvchMgkY2q12vceKFc7av6bB8LvkxK+cxu+T4z4odtzIyA0/Dzg8gRch5YG6Zjte1Ii1YbSodT38RXX43vIHLhMvze6RnS44rmU78FYevWKy19xU6+25iuuduCxXwouV1vV/9YkjP0+uLrPUN6fB048cOOOo/1+LN/za7pxm/e/O5E5DAqYRhoAAAAQGgAAAAChAQAAABAaAAAA4GaEjpAAADcjr9fbr5stGdRzxe6KZEwvWYxlWbJMvzX0r/37blXluxjDMEN21AwgNAAADGILFiyora0lj8n9I2bNmpWcnEzuhNlv4U2bNv3tb38jM4y9+eab5N4T99577/Hjx684KRNFUYWFhWTSp1tuuaWuro6iqF/+8pfPPfccSh4QGgAABhmdTmcwGMg8YAqFwmKxfPTRRzRNz5gx4z//8z/j4+N9h/geOHDAYDAolcra2tri4mISGsaOHavVasktZ8ndvaOjo6X518n8aadOneJ53mAw8DxfW1vb3Nzse7MrAIQGAIBBw2QyPfPMMyqVymazXbhw4cknnzx69Kjb7X755ZelWTvz8/MtFgtFUcuWLXvvvffy8/NnzJihUqnuvfdejuNYlrVarbfffrtCoVjah0z0Tm6icfToUYvFMmPGDKfTeebMmZKSEoQGuAZ0hAQAuHmRO6gZjcaoqKi5c+e+/PLLHMcdP36cpASC3HssJiZm5cqVGo3myJEjVquV3ETN39/faDSS27LQNO3n56fT6cx9aJpuaWk5f/68x+NZsmTJokWLrFbruXPnpHvHACA0AAAMMr6dGRMSEkJCQnieb21tJc9YLJZLly55PJ4777zTaDTOmDHjYp+rrcFXRUVFZWUlRVGTJk1KSUlhWfbw4cO+d28HQGgAABisVCoV6c1QVlZGnjl37lxpaSnLsgsXLlQqlePGjVMoFJ999tl3rsrr9ZaWlra3t99zzz0qlSogIODWW289f/78hQsXUM5wNejTAAAwaLjd7oaGBpqmTSYTRVEcxxUXF1ut1pCQkC+++IKm6ZqaGp1Od/jw4ba2tn43i++nq6vr0KFDSqXS4XBs2bJFEASO47Ra7WeffTZt2jQUNSA0AAAMblVVVZcvXxZFMSYmRjrwk26SL730EplrQaFQUBS1d+/eVatWXWNV5NqEVqv98ssvyRwPMplMrVYfP34cYygAoQEAYHCrra197rnnZDJZYmJiZGQkRVH19fVVVVUGg+GBBx4wGAwURSkUii+++KK4uPjDDz+8dmg4ePAgRVGjR4+eM2cOmcuht7f3yy+/rKqqOnjw4D333IMCB4QGAIDBxG63b9++XalU7t69u7CwkEyucM8995BLD3v37hVFcfbs2XfddZd0T3OTyfSXv/zFbrcXFxenpqZecbVut3vbtm0KhWLx4sVLly71zSWXLl3avHkzQgNcETpCAgDcvKxW6wsvvPDkk09euHAhJCQkISHh2WefXbx4MWkY+OKLLxQKxfjx46XEQFHUuHHjSI+HTz755Gqr3b9/v1wuj4mJGTZsGHmGjLCYOHGiXq/v6uoqKipC4QNaGgAABoelS5dKox8FQYiMjAwPDx85cqQ0p1NnZyeZmGHMmDHSX4miqFarV65c2djYqNfryZNyufw//uM/5HJ5fHz8/6v6ZbL7778/Li4uISGBPEPml5w2bVpzc3NPT4/b7cZXAAgNAACDgCiKv/71r6/2EnkQFRX1+OOPS0/6ziq9fPly34UVCsUf//hH32cWLVrku0Lyt6IoarVaqSeE7zoBEBoAAG5S1zhaX/El6cl+rw5c+BrPfOffAqBPAwAAACA0AAAAAEIDAAAAIDQAAAAAQgMAAAAgNAAAAABCAwAAAABCAwAAACA0AAAAAEIDAAAAIDQAAAAAQgMAAAAgNAAAAABCAwAAwL/HbrfzPI9yQGgAABjqCgsLUQjXduLEiZ6eHoqigoKCUBqDlwxFMBSjIsMMtTvl0zTd29srCIJerxdFcah93djnb5DIyEiDwWCz2drb27/66qt58+bRfVAyvnieLy4uLioqoihKoVDMmDEDZTKI69KhVoHCkPXHP/6xqanps88+G5p1uiiKOJjdiCKtqKh4/fXXHQ6HKIqTJ0+eNm1aTEyMRqNBaVMU5XK5Ghoa8vPzDxw4wPM8y7K/+93vxo8fj71x8GKfeeYZlAIMBUePHnW73QkJCUOzdRR19I0oUlEUAwMD/fz8Ghsbe3t7a2trT58+3dlHoVBoNBqWZYdgyQiC0NLSUlBQkJOTs3Xr1pKSEpqmjUbj4sWLZ82ahcQwqOHyBAyxmDwkK3G4oe0N06dPj4mJOXLkyPHjxzmOO3HiRF5eXkBAgMlkSk5OTkpKiouLGwo7niAIjY2N58+fLy4uJsnJ6XSyLKvRaEaPHr1w4cLhw4djhxn0WRmXJ2CIWLNmTUtLy5/+9KfExESUBlzH0EDOmwVBaG1t3bFjx5kzZ6R6le0jl8tHjBiRkZExbNiw0NDQn1kJtLe3X7p0qaCgoLy83OFw8DwvCAIpAUEQkpOTV6xYERMTg94eaGkAABjyJ17/OhDSNB0aGvr73//e4/EcOXLk6NGjXV1dXq+X4ziPx5Ofn5+Xl0eOpqNHj46NjU1JSTGZTAaDgQQLhmFYlqX/5eaJRASJAuTf7u5uu91eVlZWU1NTUlLi9XppmiYfgaIouVyuUqk0Gk1mZmZWVpafnx+61KClAQAtDQDXanigKKqnp6eoqCgvL8/lctntdqvV6nA4KIryer18H3I8DgsLi4yMDOqj0WhIjNBqteRfmUzGMIxSqSSrVSgU1/foK4oix3HkQOB2u0kssNvt5F+e53t6epxOZ0tLi8Viqa+vb2xsFASBpASCpmmFQmE2m3U6nVKpTE1NHTt2rL+/P3YGtDQAAMB3NzyQ6KDX66f24TiutbW1sbGxo6PDZrN1dna29OE4jqbprq6uzs5OURRJO4QoigzDBAQEKBQK8i/Lsnq9nvSKkMZlCIIQExPz4zaSYZhLly5JocHpdJL3tdvtHo/H6/W2t7fzPN/a2srzPGn5IOO0GYZRqVTkQWBgYGhoaEBAgMFgMBqN0dHRQUFBarX6ivkJEBoAAOBa0UEil8sj+pBJC5xOZ29vr8PhsNvtbre7rq6uq6urpaWltrbW6/WSw63NZiPdBaQD8MAHBoPhR29ed3f3wK3t98C3VWPYsGFmszkoKCgiIkKj0ej1erVardVq1Wq1XC7/PoUACA0AAPB9kTNvlmV1faQEkJaWRloOSNcBi8XidDpbW1vJRJPkAF9dXU26DviukFzs+HEGHulpmo6MjAwNDeU4Lj09naZps9ls6COXy0lLA2ljGBgI0KiA0AAAADew+UF6hlx3YFlWFEWFQhEeHk7O7CmKmjx5cr8/6enpIX/FcVx9ff3V3sjhcAiCoNPprthrTRTFiIgIlUpFwgrpq3h9PxogNAAAwE+aKgaezev1eukZk8mEQoOfGCalBwAY9JECAKEBAAAAEBoAAAAAoQEAAAAQGgAAAAChAQAAAAChAQAAABAaAAAAAKEBAAAAEBoAAAAAoQEAAAAQGgAAAAChAQAAAAChAQAAABAaAAAAAKEBAAAAEBoAAAAAoQEAAAAQGgAAAAChAQAAAAChAQAAABAaAL4nQRB4nqcoSqPRoDQAABAaAK7q8uXLbreboqiSkhKUBgAAQgPAlYmiuG/fPqvVSlHUoUOHXC4XygQA4EegRVFEKcDPNSu4XC6LxXL8+PGvv/46KirK5XI1NjYmJCTcdtttoaGhRqORZVkUFAAAQsPNQhCEoqKiixcvdnR0MAyadn7q0NDW1lZdXZ2UlPTAAw94PJ4PP/ywsrLSaDRGR0ebTCaEBoCfQR1rMBiioqLGjx8vl8tRIAgNg5jNZvvkk09KS0vdbjfHcSiQn15MTMzEiROnTp1qMBgoiurq6jpy5MiBAwecTid2foCfB5lMplQqw8LCHnzwwZCQEBQIQsOg5HK5Pvnkk+zsbD8/v1WrViUkJAiCgGL5Kc8//P39pbYEURRpmvZ9tbq6GqXkq6SkZP/+/Q6HY+nSpbNnz/YtLoCbFsMwly9f/uCDDzo7OxMSElavXm0ymVAsCA2DT35+/nPPPTd58uSHH35YoVCgQP5X9MsK13gSKIpqaWl54403zp8///bbb4eHh6NAYBB5//33v/rqq7vuumvZsmW48nijIhqK4MbZs2dPeHj47bffjsTwv5mLrxQOkBiuFrBCQkJuueUWk8m0bds2FAgMol2Xoqi77rorPj7+22+/tdlsKBOEhsGnqqpq+PDhUVFRKAoYRMaNG2c0Gi9cuICigMF1bqBSqSZNmlRXV4dh1QgNg5LL5ZL1QVHAIKp5NRqNXC53Op1kOiyAwYJlWbPZ7PF4urq6UBoIDYMVeo3AoNtd6T7otwuDMTeQbs4oCoQGALjh0NsDABAaAAAAAKEBAAAAEBoAAAAAoQEAAAAQGgAAAAChAQAAABAaAAAAABAaAAAAAKEBAAAAEBoAAAAAoQEAAAAQGgAAAAChAQAAAIYuGYrgOhJF0feWrAzDSDdpFUWRpmnyDMBNiOd58oBlWenW2NIuTe44DHATIjsq2UtJTSuKorQ/MwyDe7deRzQpa7gu7Hb7gQMHyF5LUdTZs2fNZnN0dDT5b2Bg4PTp01FKcHPat2+fw+GgaZpl2bKyMrfbnZKSQmphmUy2bNkyFBHcnEpKSiorK8lji8Vy8eLFESNG6PV6cnTLzMyMiIhAKaGl4SZtaSgvLy8pKZHJ/qdgZTJZXV1dfn4+efWee+5BEcFNq7u7e8eOHXK5nKQEmqarqqooivJ4PLNmzUL5wE2L47j9+/c7HI7/OQ+maVLxkkay8PDw8ePHo4iuI7SWX086nS49PV0mkyn7sCwrPVYqlWhmgJvZnDlzWJZVKpUqlUomk5HHSqWSYZgZM2agfOCmlZqaajKZyO6qUCgYhlEoFORxbGxsZGQkigih4SZF03RYWJhGo+l30UcQhLCwMLVajSKCm1ZgYGBQUJBvpxyy65pMpuDgYJQP3LRkMtkVL0DIZLLw8HD0JENouKlF9ekXGjiOy8rKQuHATW7GjBkcx/k+w/N8WlqaTqdD4cBNvusOfFKn06WlpaFwEBpuagEBAf1aw0RRZFl20qRJKBy4yZGrv1LkJQ+Sk5PRSAY3ubS0NIVC0e9szWg0xsXFoXAQGm5eZJcdOXKkbyXr9XrT0tKUSiUGqsDNjKZpo9E4fPhw3ysUwcHB6HkOg6LiHT9+vDTMksjIyPANwYDQcDNWuxRFpaen+zbnchxHOp9jrDDc5HQ6XUZGhtfrJf8VBCG6D0oGbv6Kd/78+f0urqHiRWgYHFQqldlsliKwSqUKDw9HscAgqA4YJiQkhIy6JP8NCAgg44cBbnLh4eFarZbsuqIo6vV6g8GAYkFoGBykce1erzc9PV2v16NMYFCIiYmRevKShgeUCQyW9oZZs2Z5PB7Svjt//nyUCULDoJGRkUGm0hNFsV8XB4CbWXBwsNQwptfrR4wYgTKBwWLs2LGk1qUoauLEiSgQhIbBQRRFpVI5atQonufNZnNsbCwuqsFg2XVpmk5MTFQqlRRFpaSkMAyDfmQwWISFhUVGRnIcN2LECH9/f+y6CA2DA4kIt9xyi8fjiY6OxnxkMLh2XWliBvQjg8FFo9FkZGQ4nU7sujcOujjdKCNGjNDpdKGhoRqNBqUBg4jJZPL39+d5Hh14YXCRy+UxMTFarTYhIQGlgdAwyDAMM3PmTFwShsEoIyOjp6cH5QCDTkhIyJw5c3CqduP8FLfG5jiu34T2Q8Tly5e1Wq3JZBpql9bIQNOfwQcRBMHj8Qy1Rk6aptva2rxeb1hY2BDcdeVyOcuyP4PP4na7h2Ct63A4LBZLSEjIEBwqTNO0QqH4OYQGi8XS29s7BC8v0TQ9NHviCIIQFRX1M/ggHMc1NzcPzRveDM29VxRFs9ms1Wp/Bp+lsbFxiJ4KD9WKVyaThYSE3PB3+Wm+QoZhhmafFLL7oj/O4P36mD5D7cAp7bFDbdcVBOFn85GHYNiVdt0he7j5KfYrHBh+Hl8kwHXfY7HrAipbQGgAAAAAhAYAAABAaAAAAACEBgAAAEBoAAAAAIQGAAAAQGgAAAAAQGgAAAAAhAYAAABAaAAAAACEBgAAAEBoAAAAAIQGAAAAQGgAAAAAQGgAAAAAhAYAAABAaAAAAACEBgAAABgUZCgCAAC4eQiC0NPT4/V6yX+VSqVOp7vG8na73e12UxSlVqs1Gg1FURzH2Wy2Ky4siqJWq1Wr1f3eyGQyMQzOohEaAABgULFarRs2bDh//jw5iguCEB4ePnPmzHHjxsXFxQmC4Lswx3FvvPHG6dOnWZadMGHCc8895/F4SkpKnn766Suu3OVy3X///cuXL6dpurKycsOGDRaLhabpv//975GRkf1WDgMhWAEAwM2CpmlRFAVB8Hq9SqXSYDAYjcb29vZNmzY98MAD2dnZPM/7LlxdXV1VVUVRFM/zVVVVNpuNpmmZTGboYzQaWZb1er08z+v1evKkUqkkTQ6VlZX19fU0TfM8v2XLFvI8oKUBAAAGGY/Hc/fdd8+fP9/hcBQWFu7bt6+0tHTDhg2dnZ0rVqwg1xREUayoqLh06dLkyZNrampsNtuJEyfmzp07cuTIDz74gKIolUr18ssvHz58mGXZ1157zWw28zzPsiy5qHH27FmKoqZMmZKTk3P+/Pnu7m6lUimKIgofLQ0AADCYkM4Hcrlcq9XOmjVr7dq1w4YNEwShuLjYbreTZWw225kzZ0RR/MUvfjFjxgybzZaXl8dxHE3T8n+ReipotVqZTKZQKMgzbW1tJ0+ejIiIuPvuu9Vqtd1uP378uEyGE2mEBgAAGJy5gXC5XP7+/llZWTzPt7e3t7S00DRNUZTFYjlz5kxAQEBoaOiSJUs4jrt8+XJzczO5xiHptzby3zNnzng8nszMzMDAwDlz5thstuLiYvRpQGgAAIDBjaZpr9c7ZswYQRAaGhoaGxtJaCgvL/d4PFOnTjUYDCEhIZGRkaV9yKvXtm3bNrlcHhsby7LsnDlzvF7vxYsXL1269H3+FqEBAADgJj5WMQxpYAjsQzpLfvzxxwqFIiIiwmaztba2ZmZmCoJQXV3tdDqvvary8vLu7u6YmBiz2dzU1KTVav38/KQ+lXANuH4DAAA3O1EUSZ8DTR+GYS5cuNDR0aHT6d5///2///3vpNujVqs9duzYsmXLQkJCrnrYk8l27typVCpbWlrWrFlDhmPo9XpRFMvKyiZNmqRSqVDgCA0AADAouVyunJycw4cPy+XyuLi4sLAwuVy+efNmpVIZFRU1bdo0ck3B7XYfP368oqKiurr6aqGBpunOzs6TJ0+qVKqMjIykpCQSGjo7O3fu3Hn06NHbb789NDQUZY7QAAAAg4ZcLv/666/r6up6e3urqqoaGxsFQTAajUuWLFGpVO3t7SUlJQqFYty4cb/61a84jhNF0ev1chxXU1Ozbdu2KVOmXHG1CoXi4MGDcrlcr9ffdddd8fHxZPRmZ2dnQUFBVVVVTU0NQgNCAwAADCYsy57rQ/4rCILJZHrqqadGjBhB03Rubq4gCAaDYfz48aIo0n1UKtWwYcNUKhXpsmAwGAY2M1AUdfjwYTLndGJiotvtJiMwjUbjpEmTampqvvrqq6sFDhhMocHhcHR3d3d1dXEcR1FUSEiIn58fmT+coqiampqenp6BvV55nk9OTvad58tqtdbW1lIUFRQUFBoaKg3hJZOEeDwe8litVut0OpqmlUqlXq+Xy+W+K3c6nb29vU6n02Kx6PV6k8mkVqvJZTBRFOvq6rq6usxmc0xMjDS8x+12l5WVqVSq6OhorVbruxP39PTU1NQwDBMeHh4UFFRaWkr24/DwcH9/f7IGjuMuXrxot9uTk5NVKlVbW9vly5fJxiuVSrPZrOojbSfZDKvVOrBMRFH09/cPCwu7cOECx3FGo1HaTlEU6+vrLRaLn59fdHQ0hiwPIjzP2+323t5e8qX7+/uTCfb7Tafv8XgqKyv5PqmpqWSWm4HrcTqdra2tLMsGBgbqdDppPRaLpa6uThTF9PR06U8YhiksLCT7VWxsbENDQ1tb28AtJAuEh4djhn+4BlEUVSrV9OnTR44cSaovQRCCg4NjYmLS09M5jvN6vTKZzGKxLF++XK/Xjxw5UpojUhCEUaNG3X///e3t7a2trSaTyev1jh071s/Pj2EYUqG1t7fPmjXL4XAkJCQIgkACB2mBmDJlCs/zHo9HmgAKBqJ/gtmvurq6HA7HvzOOxWq1fvDBBydPnuzq6iI1jlwuX7Ro0W233RYaGkrT9COPPJKfnz/wIOdwOL744ouwsDDyMZVK5dNPP33gwAGKosaMGfP888+TKErTNMdxd999d3Nzs+++S1FUTEzMjBkz5syZEx4eLn2crVu3njx58vLlyyTeJiYmjho16vbbbw8MDOR5/tlnnz18+PD8+fOff/55chsVmqabmpqWLl0aFRX19NNPjxo1Sip2mUx25syZRx99VKVSrV69euXKlbfeemtDQ4MoinPnzl2zZg3Zdy0Wy+OPP3727Nndu3dHRkZ++umnb731lpSZDAZDUlJSQkLCzJkzo6KiyI/n2WefzcnJGVhB8zy/cOHCJ5988j//8z8LCgqio6M3bNgQHBwsimJzc/Pq1aubm5t/9atf3XfffT96UlVBECIiIn4GPw+v19vS0nLzH+S8Xu+JEyf2799/5swZmqYFQTCbzePHj58yZcq0adOkoeeiKFZVVd13331yudzpdH788ccjR470HZju9Xq//fbbL7/88ty5czzPi6Lo5+c3ceLEmTNnTpw4kWXZffv2PfvsszzP5+XlSX+l0+nGjx/P8/yCBQvWr1+/YcOG//7v/x64kR6PZ/HixatXr5b225sQKTpy06PBrqmpaZCGBpqmpSmYpO+FTCxNXiXBgjxwu93SgV8URYZhFAoFqdLJdQeFQkFqUZfL5bsAyQfSgUkURZlMJpfLpSUH3dhLlmWDg4PR0vA/X/nmzZv3798fExNz1113mUwmq9X6+eeff/nll729vatXr9ZoNGq1WqlUTpw4MTU11feb9nq9fn5+5AhN0zSZL4wEhcrKypaWFt/2K41Go9PpNBrNrFmzyJxiXV1d+fn5mzZt6u3tvf/+++VyeWtr65tvvllSUsLzfEZGRlpaWnd394kTJ7Zv397Q0PDiiy+SJjKdTtev/y3DMGTlAwMseUmpVMrlclEUyWaIolhUVHT27Fmp8U2tVuv1evLp5HK5RqNJSkqaPHmyXC4vLy8vKio6depUQUHBXXfdNWnSJEEQSEdilmUfeOAB0oIi/TZiYmIYhnnsscf+8Ic/dHR0fPbZZ7/97W9lMtm7775rs9nS09OXLVumUqkwneqg4HK5du/evWPHju7u7qCgoGnTphmNxjNnzhw7duzMmTM6nW7s2LHSDQPz8/NVKpXBYHC5XJ9//vlzzz1Hci2pl//5z38ePHjQYrEEBgbOnDlTrVYXFBTk5OQUFBS8/PLLw4cPl8vlOp3Od/J/aeY+QRDIFLwKhUKr1apUqtmzZwcHB0uhRBCE2NhYUikDXPVEtq+K862yBr5K07S030pPSvetkF4iz3N9rrGA9Ji0wA18CQZZaHC73dnZ2Wq1euTIkXfeeacoihzHhYaG5uTkDB8+XDqw8Tw/evToZcuW9fuypf/K5fL9+/fzPB8QEDB16tRPPvnkxIkTI0aM6Pd2BoPht7/9LZmmlOO4Q4cOvfPOO9nZ2cuXLw8KCsrLyzt9+rS/v//jjz8+bNgwMkonLS3trbfeKioq+vrrrxcuXHi9fjk2m23v3r0jR4684m1heZ6Pi4tbvHixSqWaN29ebW3tu+++W1VV9cYbb4wZM8a3kWDFihXSrKvSyl0uV3h4+OOPP/6nP/0pOzt7ypQpdXV1Z8+e9fPzW7x4cWRkpHSYgZtcV1fXpk2beJ5fsWLFwoULTSaTXC5fvHjxU089VVNT8/HHH2dkZEiH7a1btxoMhtmzZ588eTI/P7+9vd1gMJBUarFYtm7dKgjCbbfdtmjRosDAQIZhsrKy3njjjYKCgtdff33jxo3ff6vUanVWVtawYcN8dyRUxAAIDTecSqXS6/UWi+Xs2bN5eXkZGRkMw0zqM/CUnabpqzUmy2SyXbt20TQ9YsSICRMm7Olz3333DVyJSqUiNZ1SqSTtt52dnSSrnj59mqbp9PT05ORkqQ0zMzPTbDZHR0erVCrf/PvvmDp1amlp6bFjx5YuXZqWlnbFZZh/0el0aWlpv/rVr95880273d7Q0JCQkOBbU1+xTLxeb0ZGxqxZs7Kzs7du3Uq6esTGxi5YsOBqMR9uQi0tLR6PRxTFrKwsqde3wWB47LHH5HJ5SEgIOXliGKasrKy3tzc+Pn758uVFRUU2m+306dMLFy70eDwsy5aWlpJInZmZKd0jODg4+I9//CPDMAEBAT9037727xEAEBquPzKK5pFHHvnzn//c09Ozbt26jIyM0aNHp6WlkS5aUmu/TCbLz8/3er1SJUWmHR05ciSpvyorK8k0YQsXLoyMjBw+fHhBQUFeXh6ZRMz3DL6zs7O3t1cURavVunnzZpZlJ02aZDQaBUE4ceKEUqkkHXSlLaQoqt+1YZZl8/Pzn3jiCVJfk96OP6iLQHBw8Pjx41966aU33njjvffe+87lBUFITEzUaDROp/PUqVPJycnSS59++qlvCNBqtbfccgspJZqmH3zwweLi4qKiInI979FHHyUXs3FSOFiQSXNHjhyp1+t9d+PIyEiyY0iXtLZu3apQKKKjo4cNG5acnNzU1LR3794FCxaQPfbs2bMsy0ZERISHh0sNeKQPGnng24rw5z//2XdvH7hVDodjz549YWFh5A9J5+LMzMyAgAB8ZQAIDTcKmXI8PT399ttvr6+vv3z58tmzZ3NzcymKSk1NXbly5ejRo8nxj2XZ4uLi/Px86W9dLtdvf/tbEhpkMtmhQ4e6urp0Oh1prY2NjS0tLd25c+fUqVN9j6kdHR2PP/64IAhut7u6ulqtVsfHx8+bN0+r1fb09MhkMlEUjUajTCYjtaHUv7ffZtvtdt+NoWn6B3XH5TguIyMjJSWlqKjo888/X7JkyXemKz8/P/IW5eXlvu9F5kqThIaGZmVlsSxLDgwKhWLUqFEnTpwQRdHcRzrMwKBAeu/GxcX5dqMh1259rwF3dnbm5+frdLrk5GSO4xYtWnTo0KHOzs6KioqEhATy82EYxq+PFBr6rUdKCYWFhb7bMLCngtvt3rt3r28fzICAgLi4ODIBML41AISGG0gQhIceeshqtdbV1bW2tjY0NPzzn/8sLi5WKpXx8fHkBIvjuKysrLFjx/qebEmt9Far9eLFi16vl6bpV199VRTFixcvyuXykpKSy5cv+/Y4JR13yYAFXZ/7778/MzOT4zitVktOwTs6OjiOu0YIEAQhJSVl8eLF5KIGTdPd3d3vvPPO9//IVVVVUVFRWVlZdXV127ZtGzNmzLUzBzkqkKsq0dHRvl3VnnnmGd+GZTJ8ThpjefLkyePHj/v7+zscjpaWlk2bNv3hD3+4XhdZ4CdALklUVFQ4HI6rDUxQKBQHDhwgSffUqVNlZWUkBPT09Bw/fjwxMZEMTs7Ozm5vb+/o6PBtbBjI5XKtXbtW+q9SqVy/fn2/ZbRa7a9//evAwEApNyiVyoiICCQGAISGG4thmPb29p6enri4uJEjRyYlJXk8HrVa/e677+bn5zc3N5PQwPP8sGHDZs+e7XtKRG6ESmYpr6ysZFnWZrORIZdktCTp6PD73/9eOkz6+/uvX7/e4XC0trY+8sgjvb29Z86cGT9+PDnBSktLKykpqa6udrlc0nQLcrn8mWeeiY+PnzNnDml9JY268+bNc7lc5CM0Nze/+eab3/9TW61WjuPmz5//9ddfV1ZWvvHGG2az+VpfpEx2+PBhq9VKUVRGRoZv77P58+f36whJRiczDNPR0fHOO++wLPvrX//64sWL+/fvz8nJGT9+/Lhx49ARcrBITEykKKq2ttZms/n7+0v7Q25u7v79+5cvX56UlOT1eo8cOUI6pZ8+fVpqMPB6vdXV1Var1Wg0pqenHz58uK6PdHSXyWTZ2dmnT59eunSp1GvY6/XOmTNH2gCdTjcwNCgUiokTJ8bFxfnmV99h8TAYeb1em80mCIJarZYqwJ6eHpfLxbIsmdKGVLxktg8yZIw809PT43a7aZo2m82+PV3IFWHfZ2QyGZlZwTenkkvG/bZHFEWlUunn58dxXHd3N03TZOSO9Krdbne5XAqFot9ET+QW2y6XKyAgQKvV+u6TZFWk1U0axn+1VTmdzpKSkqioKJlMptfrpbfmOK6np+eKN9pmGMZkMg3eX8HNHho0Gs26detOnTql0WhWr149Y8YMcoo/cuRIr9er7SOdaguCwPP8wC+D3E21s7PTZDKtXr1aOu/ZsmVLbW1tXl6eb0XGsqzRaCTT2syYMePw4cM5OTmZmZnp6ek8z996661FRUX5+fkHDhxYvHixrM/evXuLiopyc3M7Ojoee+wx3/1SuqD7Q9v8SbMwwzB33333unXrmvsMbGyQ7hB/5MiRffv2kY9P2kV8f+f9xsiR9cvl8meffZbjuLS0tEmTJmVlZX311Vfd3d1fffVVamoq+q8NFtHR0YGBgWQuk9///vek4YG0bLW3t9fV1f3jH/+4cOECqVIXLlyYkpJC9pOmpqZNmzbV1NRUVVWlp6dPmTLlr3/9q8fjOXjwYFRUVFhYGE3TDQ0NO3furKqqOnfunO/sC/26AV1xw/h/wXf080BOM9asWWOxWLKysp544gmn06lSqZ588snCwkKPx7N27dqsrCxBEKxW67p168rKyh5//PGFCxfSNF1fX79+/fq6ujqGYdauXUtqcrLa5ubmlStX+vbIIVMmkFE8ZDTQoUOH3nvvvYEtoDzPT5ky5amnniopKXnyySeVSuWDDz64YMECsnK32/3hhx/u2bNnwoQJL730kjQq7ZVXXikoKJCuLKtUqjVr1kycOFEQBJlMVlxcvG7dOqPR+Pzzz8fHx5MdeOCqurq6tm/ffuDAAfJePM8HBwevW7cuLi6OYZjq6uq//vWvFotlYLUfHBz87rvvkgH2CA3Xn8vlWrVqVU1NTVtb22uvvXb27Nn09PTLly9/8sknSqXylltukfpVkY6QHMf1y7CTJk3y9/fPyckRBOHWW2+dNWuW1DwgiuKLL75os9lOnjzpe11DGpT46KOPnjp1ymKx7Nq1i1wHGTt2bFpa2oULF95///233377F7/4RWlpaUVFhVKpTElJeeKJJ/qd0/9opNckx3GZmZnjxo07depUv6mrWJatqKjYsmVLTU1NR0dHTU0NmcVy3bp1JEZIS27ZsqXfPA2RkZHTpk3bvn37xYsXDQbDsmXLSFeGF154Ye3atadOnfrmm2/mzp2LWnJQCAwMvPvuu//xj38UFhauXLkyMTExNjY2Ozubpmm9Xv/YY48ZjcaTJ0/abDaSQck4YbKT7927t6mp6cKFC6NHj1apVH/+85//7//9v3l5eUePHs3MzDSZTN988w3DMBqN5vXXX/9BdZzD4di1a5fUEZLseAaDYcaMGTfz5E5wDYIgREZG6vX6rq6ukpIScjjkeb6wsFAmk3m93u7ubpJHbTbbuXPnlErlqFGjyN9WVlbW1tYqlUpBED777LPZs2f7ntiQc6Tg4GCZTEbmS7DZbJ9++ul//dd/ffHFF4GBgfS/kOl3fTvqSk2w0jL9anLfJwsLC//617/abDalUmkwGJRKZVdXl8vlevLJJxcsWPDoo49KfYAGHux9V+X1enfu3Pnpp5+G9tHr9eS63t133/3iiy+SdjiypNFoJNe1pfUEBARIXYUQGq4/nucjIiJeeuml//7v/y4vL8/Ozt61axfDMAkJCeHh4bNnz5bmIGJZtqSk5OzZs75fhtvtDgkJoWm6uLhYpVJNnDhRanXneX7cuHFKpZL0WBw3btwVN+CJJ5547rnnTpw4MWnSpLlz5/r5+T388MPbtm2rrq5ua2v78ssvzWbzxIkT/fz8HnnkkWvfxP0HSUlJIT0went7H3744fLy8p6enn6pv76+vqamhswCNmbMGKPRuGzZsrS0tH5XFvr1pRAEYdasWf7+/lu2bGFZNjMzc8qUKWQGtDFjxsyZM2ffvn27d+9OT0+X2rrhZkbT9OzZs8ltAEnfnYaGhvj4+JCQkMzMzIyMjKampsrKSo/HM3bsWLPZ3NvbK02ft3Tp0rfffjs3N3fevHlGo3Hq1KlksrL29vaioiKGYUaOHBkYGJiVleXbO+H7cLvd+/fv79cgER8fP2HCBISGQYo0AKSlpdXX1/M839TUFBAQUFdXR85nGIa5dOmSy+VSq9XNzc0Mw5CZbEgbfllZmcfjmT179rFjx7q6uv5/7N1tTFvl/8dx2p620K3AOgYdbIUNpm6MweI2ZifqFjbmze5wQxfJ3FDZ4jIfOKNuMZr41JjMJ/rMzNsoCg5jlugSMBKUDcLQ3RgY4GSODLmppaX3N/+Eb3JyUnDhn/z9/X+d79ejAe3p6c7Vcz69znV9r4GBAXVar5iamnrjjTek8O7U1FRbW9tHH33k8/k+//zzF198UX3Y888/n9CTKhfyuVyDPR5PQ0PDxMREfn6+0+msqKjIzc39/vvvz58/39PT09bWtmbNmjkW2hkdHf32228NBsOTTz65f/9+ORu/9957bre7u7t7+/bt8rBQKPTUU089/PDDCefkpO7HTYLZE1LK6YUXXhgcHJyYmJALs8PhKCgokHir0+lqamoqKytnLZlcXFxsMpleffXVtLS0goIC7bXTbDYfP348EAhkZ2dHo9Fnn31WWrwMRJATa1lZ2YkTJ4LBoFxB4/G4w+E4evTozZs3R0ZGQqFQRkaGw+GQU6rc5ti5c+fGjRvtdrvasmVqw8mTJy0Wi1rTWt1Dh8Nx/Phxg8FQVFTk9XoPHTrk9/sdDoe6EIbVaj158uTY2Fg0GpVYXV5evnDhQvVuxaJFizIyMrKzs9UKE7Ib991336xrT9jtdkVRjh49KgMgpA6r/J/U19eXlpZGIhEq9yXRqdxsNu/bt2/Dhg0ul2t0dDQ1NTV3msVi8fl8iqI8/vjjVVVVd911l9/v1zaJzZs3Z2ZmGo1G6dkymUw1NTVOp/PWrVtut9tgMBQUFCxevNhkMslk5uLi4hMnTiScoIPB4EsvvSTtampqqqKiQvtB0+6njCzmkCVvPA2Hw5s2bWpubvb7/YODg3l5eVJQfPny5V6vVwZ7paWlXb16NSUlpaSkRAY0uFyu1tbWefPmHTx48Pr160NDQ62trXV1dQn1YAwGg0xPW7BgwaOPPnrmzBmfz3fx4kXtbVkpqqttgXP/yj4yMtLR0WEwGHbv3l1dXS23j6urq51O59NPPx0IBDo6OrZv3z6X+8hyx1lRlJ6enq1bt1oslqysrPr6etlD9TaKVPhN6CRWB6En6bAGJSlaaiwW0+v1K1as0NYJlxIO8mNZWdnfHQAJs9u2bUu4Eat+ANStbdy4URKr1JCWh5lMpoqKCu24hEgkIrM2ioqK1OfKfS9pB6tXr5btqAMsZJK6dPgnjAWTpds2b94s/w4Gg+Xl5dqny7/XrFmjnduZn5+vPS+rrXDmbvxdi09JSZGpJVLUXd3P+fPnq/vJWTJZTuXSqJZMUw+ltGQ5pmqj0o6tkSFp2sMtnynpcdVuR5piLBaz2+25ubkSdtXthMNhacDxeDwUCqkfjVkbHrMnklokEpGBtz6f79KlS5WVlTKxvKqq6tq1a01NTV6vd8GCBXJtdjgcEkb7+/snJiYqKyvnz59fU1Pz5ptv9vf3T05OJtTaV5tHLBb74YcfJicnU1JSNm3apB0W09XVFQqF1DO/Xq/Pz89XV7oJh8MtLS2///67tOdwOHzlyhU1c4yPj8sJvKSkROqhSeTNzc21Wq1//fWXx+NxuVxz+X/IysqqrKz86quvOjs7jx07tm7duvLy8lWrVsmtE7WRGwyGnp4ei8WifQuLFy8uKChI3hOsklzfqBLOOAkZ4jbPnfUIyXlw5vYTrrXqY9TbXX/3igl/0p6dZ27n7/40624kvNzt3+9t9nBmdLjNfiKJcoM2O86lTc760bjNdhKaR0IbnrUB447s1rJYLMuWLevr6xsbG/N6vbKi6fr16ycnJ8Ph8NjY2OLFi69du2az2XJycvR6fTQa/eyzz4xG49q1a1NTUzds2BCLxQanFRcXq03FarUeOXJEe1KScrcJBWqbmpoaGxvVH1NTUw8fPqx+g4pGo9rVtNVgIf8YGhqKx+PFxcXp6enaNhyJRHbs2PH+++97ps2lA8BsNm/btq2np2d4eHh0dPTs2bPffPONoih79uypra2VSfsycu7cuXPfffed9rl79+49cuSI9GcTGgAAd3I8DYfDW7duvXr1qtvtlpEKRqNx6dKl2dnZsnieVIJZOk0K3ly5cmXhwoV6vV7WVb/nnnt+/fXX3t7eVatWacOr3HKVyRfBYLCkpOT111+XtdDUh9ntdu2YGJPJpA7slXxgs9nU6mSxWGximvw1IyNDJg0lXLANBsP58+dlyqgMadR23GrDh3YAZlFR0enTp3/77beWlpb29nafzzc+Pv7BBx/MmzevtrZWfVhOTk7CLTkZdZ68bYDQAACYK1ngV4ortLa2ejweWVs4Ozs7NzdXipHr9fqcnJzs7GxFURobG9PS0kKh0KlTp+S2gqxL3NXVVVlZqc609Pv9x44dy8nJ8fv9H3/8scwXk04s7ZiGl19+ecOGDdrhYsFgUP3RbDbX1dXt2rVLOicCgcA777zT1NQkf126dGk8Hne5XDdv3lRXaZHB5r29vXq9ft68eeoQBL/f39/fL3XPUlJSvF7vxYsXZREW6ZyQQT95eXnPPPNMfX19T0/PqVOnhoaGPvnkk+rqanWtzsOHD1dVVWkHQoZCIalXQWgAANzhZG7kkiVLhoeHJyYmpqamNm3aFA6HlyxZkp+ff/ny5fHxcYvFkp+fL0MCz507pyhKaWlpRUWFXN09Hs+nn37a2dn5559/qqEhGo3mTdPpdNXV1QMDAz/99JMUqNW+us/n83g8CZMRtCWYgsGgx+ORFwoEAjJSXv4qhcxv3LjR3NxssVikn2NycvLMmTNScefuu+82m812u12ee+HChYceekimiV66dOmPP/6IxWKyfGBzc/OFCxcWLVr03HPPZWZmyvJDJSUlN27ciEaj2t0LBAJerzdhh5O6vhmhAQDwvwgNer3+/vvv//LLLyPTpNRe5jRZEzg9PV0qNHR2dkrx3B07djidTrl2er3evr4+metYWFioXkfVanhlZWXl5eUyGmDLli3aZX6bmpo6Ozu1Nw4sFssjjzwyl0mMWVlZjz322LvvvvvLL78MDAwUFhYuX768ra1NCunabLbdu3dHIhG73b5y5crLly93d3e/8sor69atk9LDiqLY7XYZP26z2bq6uiwWy8jIyAMPPJCTkzMwMPDjjz+GQqF9+/ap90eMRuPZs2f7+vq09yOMRqPT6SwuLk7SumeEBgDAXMm35NLS0oaGBrlUSwmv1NTUrKws+dJvsViKiooURfniiy/0er3Val2zZo06c8dqtd57773t7e0NDQ379+9XKyap43ANBsOePXu6u7tdLtfbb7/94YcfqoWVLk7TJhiplDNrZaeEikwyEd3tdn/99ddTU1M///yz3HHQ6XQLFy586623UlNTo9FoKBR67bXX6urqgsHg4OBgf3+/PMZoNB44cEBmDz344IPBYPD06dN9fX29vb0yv08GZNTW1qpLDimK8us07S6ZzWaHw1FSUkJoAAD8K6xcubK2tlZRFJnuKAMkt2zZYrVaI5FIenp6RkaG2+12Op2lpaXp6emZmZmBQEC9eJeVlR06dEhuJaSnpx84cEDChNrlsGLFioMHDw4PDxuNxv7+/sLCwr179866IE5aWprNZotEIk888YSiKMuWLVMvxgaDYf369RkZGbKT0kcigwxaWlquX7/udrsLCwudTue6deuCwaBMJJayOo2Njd9PGxsby8zMXLt2rRSDktESUuxh9erVHR0d4XC4vb09Ly9v586da9euDYfDsVgsKytr165ds5b7S9jJ5EuN/4HJUS6Xy+fzsUrNv0csFlNnTie1SCRy69YtluH4VzVdm80mJYmS3fDw8D/a3yA1GKLRqHyxlnqR0tMgYwtkxWC5DGuH/klfgtFo1Ol0UgdJNqVWmZPHmEwm+ejJ9mctNycbD4VC0hMgn1ntOAaj0WgwGLQ7KZd8+b0EFHnKzGpLxmkyaSISiYTDYbnSqwUo1fdrNBpjsZhaQELSifreZz2xaHfy/4pUB6anAQDw3yUejydMXJQLsPoFWp0+oP1R/bcUslN/M7NogXRdaH9z+/X6JZfMfK3wNO1m1TJ6M18x4TcJz51Z0kZ9vwlbU3PS7VNXkh56vkIBAABCAwAAIDQAAABCAwAAIDQAAABCAwAAIDQAAAAQGgAAAKEBAAAQGgAAAKEBAAAQGgAAAKEBAAAQGgAAAAgNAACA0AAAAAgNAACA0AAAAAgNAACA0AAAAAgNAAAAhAYAAEBoAAAAhAYAAEBoAAAAhAYAAJDMlP/Aa+h0Or2edPJviqJ30OHW6/U6nY5jStNNOrRbWu8/0q7i8fg/+gLxeJy2+y/EcQetl7eAO++4/+OhAQAA3Bm4awAAAAgNAACA0AAAAAgNAACA0AAAAAgNAACA0AAAAEBoAAAAhAYAAEBoAAAAhAYAAEBoAAAAhAYAAEBoAAAAIDQAAABCAwAAIDQAAABCAwAAIDQAAABCAwAAIDQAAAAQGgAAAKEBAAAQGgAAAKEBAAAQGgAAAKEBAAAQGgAAAAgNAACA0AAAAAgNAADg/8H/BAAA///2uGApJHJNgQAAAABJRU5ErkJggg==;" vertex="1" parent="1">
          <mxGeometry x="60" y="190" width="700" height="316" as="geometry" />
        </mxCell>
        <mxCell id="HTOVWrgXT7IvX3jWYRZA-2" value="" style="rounded=0;whiteSpace=wrap;html=1;strokeColor=none;fillColor=#FF0000;" vertex="1" parent="1">
          <mxGeometry x="160" y="341" width="500" height="14" as="geometry" />
        </mxCell>
        <mxCell id="HTOVWrgXT7IvX3jWYRZA-5" value="" style="endArrow=classic;html=1;entryX=1;entryY=0.5;entryDx=0;entryDy=0;rounded=0;strokeColor=#FF0000;strokeWidth=2;" edge="1" parent="1" target="HTOVWrgXT7IvX3jWYRZA-2">
          <mxGeometry width="50" height="50" relative="1" as="geometry">
            <mxPoint x="610" y="280" as="sourcePoint" />
            <mxPoint x="660" y="230" as="targetPoint" />
            <Array as="points">
              <mxPoint x="660" y="280" />
              <mxPoint x="710" y="280" />
              <mxPoint x="710" y="348" />
            </Array>
          </mxGeometry>
        </mxCell>
      </root>
    </mxGraphModel>
  </diagram>
</mxfile>
